<svg width="139" height="87" viewBox="0 0 139 87" fill="none" xmlns="http://www.w3.org/2000/svg">
<path d="M27 69.2734C27 71.1016 26.5365 72.5391 25.6094 73.5859C24.6875 74.6328 23.4036 75.1562 21.7578 75.1562C20.0755 75.1562 18.776 74.6432 17.8594 73.6172C16.9479 72.5859 16.4922 71.1328 16.4922 69.2578C16.4922 67.3984 16.9505 65.9583 17.8672 64.9375C18.7839 63.9115 20.0859 63.3984 21.7734 63.3984C23.4141 63.3984 24.6953 63.9193 25.6172 64.9609C26.5391 66.0026 27 67.4401 27 69.2734ZM17.8984 69.2734C17.8984 70.8203 18.2266 71.9948 18.8828 72.7969C19.5443 73.5938 20.5026 73.9922 21.7578 73.9922C23.0234 73.9922 23.9792 73.5938 24.625 72.7969C25.2708 72 25.5938 70.8255 25.5938 69.2734C25.5938 67.737 25.2708 66.5729 24.625 65.7812C23.9844 64.9844 23.0339 64.5859 21.7734 64.5859C20.5078 64.5859 19.5443 64.987 18.8828 65.7891C18.2266 66.5859 17.8984 67.7474 17.8984 69.2734ZM30.5781 66.4375V71.9922C30.5781 72.6901 30.737 73.2109 31.0547 73.5547C31.3724 73.8984 31.8698 74.0703 32.5469 74.0703C33.4427 74.0703 34.0964 73.8255 34.5078 73.3359C34.9245 72.8464 35.1328 72.0469 35.1328 70.9375V66.4375H36.4297V75H35.3594L35.1719 73.8516H35.1016C34.8359 74.2734 34.4661 74.5964 33.9922 74.8203C33.5234 75.0443 32.987 75.1562 32.3828 75.1562C31.3411 75.1562 30.5599 74.9089 30.0391 74.4141C29.5234 73.9193 29.2656 73.1276 29.2656 72.0391V66.4375H30.5781ZM44.7109 72.6641C44.7109 73.4609 44.4141 74.0755 43.8203 74.5078C43.2266 74.9401 42.3932 75.1562 41.3203 75.1562C40.1849 75.1562 39.2995 74.9766 38.6641 74.6172V73.4141C39.0755 73.6224 39.5156 73.7865 39.9844 73.9062C40.4583 74.026 40.9141 74.0859 41.3516 74.0859C42.0286 74.0859 42.5495 73.9792 42.9141 73.7656C43.2786 73.5469 43.4609 73.2161 43.4609 72.7734C43.4609 72.4401 43.3151 72.1562 43.0234 71.9219C42.737 71.6823 42.1745 71.401 41.3359 71.0781C40.5391 70.7812 39.9714 70.5234 39.6328 70.3047C39.2995 70.0807 39.0495 69.8281 38.8828 69.5469C38.7214 69.2656 38.6406 68.9297 38.6406 68.5391C38.6406 67.8411 38.9245 67.2917 39.4922 66.8906C40.0599 66.4844 40.8385 66.2812 41.8281 66.2812C42.75 66.2812 43.651 66.4688 44.5312 66.8438L44.0703 67.8984C43.2109 67.5443 42.4323 67.3672 41.7344 67.3672C41.1198 67.3672 40.6562 67.4635 40.3438 67.6562C40.0312 67.849 39.875 68.1146 39.875 68.4531C39.875 68.6823 39.9323 68.8776 40.0469 69.0391C40.1667 69.2005 40.3568 69.3542 40.6172 69.5C40.8776 69.6458 41.3776 69.8568 42.1172 70.1328C43.1328 70.5026 43.8177 70.875 44.1719 71.25C44.5312 71.625 44.7109 72.0964 44.7109 72.6641ZM50.4453 75.1562C49.1797 75.1562 48.1797 74.7708 47.4453 74C46.7161 73.2292 46.3516 72.1589 46.3516 70.7891C46.3516 69.4089 46.6901 68.3125 47.3672 67.5C48.0495 66.6875 48.9635 66.2812 50.1094 66.2812C51.1823 66.2812 52.0312 66.6354 52.6562 67.3438C53.2812 68.0469 53.5938 68.9766 53.5938 70.1328V70.9531H47.6953C47.7214 71.9583 47.974 72.7214 48.4531 73.2422C48.9375 73.763 49.6172 74.0234 50.4922 74.0234C51.4141 74.0234 52.3255 73.8307 53.2266 73.4453V74.6016C52.7682 74.7995 52.3333 74.9401 51.9219 75.0234C51.5156 75.112 51.0234 75.1562 50.4453 75.1562ZM50.0938 67.3672C49.4062 67.3672 48.8568 67.5911 48.4453 68.0391C48.0391 68.487 47.7995 69.1068 47.7266 69.8984H52.2031C52.2031 69.0807 52.0208 68.4557 51.6562 68.0234C51.2917 67.5859 50.7708 67.3672 50.0938 67.3672ZM65.4922 72.6641C65.4922 73.4609 65.1953 74.0755 64.6016 74.5078C64.0078 74.9401 63.1745 75.1562 62.1016 75.1562C60.9661 75.1562 60.0807 74.9766 59.4453 74.6172V73.4141C59.8568 73.6224 60.2969 73.7865 60.7656 73.9062C61.2396 74.026 61.6953 74.0859 62.1328 74.0859C62.8099 74.0859 63.3307 73.9792 63.6953 73.7656C64.0599 73.5469 64.2422 73.2161 64.2422 72.7734C64.2422 72.4401 64.0964 72.1562 63.8047 71.9219C63.5182 71.6823 62.9557 71.401 62.1172 71.0781C61.3203 70.7812 60.7526 70.5234 60.4141 70.3047C60.0807 70.0807 59.8307 69.8281 59.6641 69.5469C59.5026 69.2656 59.4219 68.9297 59.4219 68.5391C59.4219 67.8411 59.7057 67.2917 60.2734 66.8906C60.8411 66.4844 61.6198 66.2812 62.6094 66.2812C63.5312 66.2812 64.4323 66.4688 65.3125 66.8438L64.8516 67.8984C63.9922 67.5443 63.2135 67.3672 62.5156 67.3672C61.901 67.3672 61.4375 67.4635 61.125 67.6562C60.8125 67.849 60.6562 68.1146 60.6562 68.4531C60.6562 68.6823 60.7135 68.8776 60.8281 69.0391C60.9479 69.2005 61.138 69.3542 61.3984 69.5C61.6589 69.6458 62.1589 69.8568 62.8984 70.1328C63.9141 70.5026 64.599 70.875 64.9531 71.25C65.3125 71.625 65.4922 72.0964 65.4922 72.6641ZM71.2266 75.1562C69.9609 75.1562 68.9609 74.7708 68.2266 74C67.4974 73.2292 67.1328 72.1589 67.1328 70.7891C67.1328 69.4089 67.4714 68.3125 68.1484 67.5C68.8307 66.6875 69.7448 66.2812 70.8906 66.2812C71.9635 66.2812 72.8125 66.6354 73.4375 67.3438C74.0625 68.0469 74.375 68.9766 74.375 70.1328V70.9531H68.4766C68.5026 71.9583 68.7552 72.7214 69.2344 73.2422C69.7188 73.763 70.3984 74.0234 71.2734 74.0234C72.1953 74.0234 73.1068 73.8307 74.0078 73.4453V74.6016C73.5495 74.7995 73.1146 74.9401 72.7031 75.0234C72.2969 75.112 71.8047 75.1562 71.2266 75.1562ZM70.875 67.3672C70.1875 67.3672 69.638 67.5911 69.2266 68.0391C68.8203 68.487 68.5807 69.1068 68.5078 69.8984H72.9844C72.9844 69.0807 72.8021 68.4557 72.4375 68.0234C72.0729 67.5859 71.5521 67.3672 70.875 67.3672ZM80.5 66.2812C80.8802 66.2812 81.2214 66.3125 81.5234 66.375L81.3438 67.5781C80.9896 67.5 80.6771 67.4609 80.4062 67.4609C79.7135 67.4609 79.1198 67.7422 78.625 68.3047C78.1354 68.8672 77.8906 69.5677 77.8906 70.4062V75H76.5938V66.4375H77.6641L77.8125 68.0234H77.875C78.1927 67.4661 78.5755 67.0365 79.0234 66.7344C79.4714 66.4323 79.9635 66.2812 80.5 66.2812ZM89.1562 75L85.9062 66.4375H87.2969L89.1406 71.5156C89.5573 72.7031 89.8021 73.474 89.875 73.8281H89.9375C89.9948 73.5521 90.1745 72.9818 90.4766 72.1172C90.7839 71.2474 91.4688 69.3542 92.5312 66.4375H93.9219L90.6719 75H89.1562ZM102.688 70.7109C102.688 72.1068 102.336 73.1979 101.633 73.9844C100.93 74.7656 99.9583 75.1562 98.7188 75.1562C97.9531 75.1562 97.2734 74.9766 96.6797 74.6172C96.0859 74.2578 95.6276 73.7422 95.3047 73.0703C94.9818 72.3984 94.8203 71.612 94.8203 70.7109C94.8203 69.3151 95.1693 68.2292 95.8672 67.4531C96.5651 66.6719 97.5339 66.2812 98.7734 66.2812C99.9714 66.2812 100.922 66.6797 101.625 67.4766C102.333 68.2734 102.688 69.3516 102.688 70.7109ZM96.1641 70.7109C96.1641 71.8047 96.3828 72.638 96.8203 73.2109C97.2578 73.7839 97.901 74.0703 98.75 74.0703C99.599 74.0703 100.242 73.7865 100.68 73.2188C101.122 72.6458 101.344 71.8099 101.344 70.7109C101.344 69.6224 101.122 68.7969 100.68 68.2344C100.242 67.6667 99.5938 67.3828 98.7344 67.3828C97.8854 67.3828 97.2448 67.6615 96.8125 68.2188C96.3802 68.776 96.1641 69.6068 96.1641 70.7109ZM108.391 75.1562C107.151 75.1562 106.19 74.776 105.508 74.0156C104.831 73.25 104.492 72.1693 104.492 70.7734C104.492 69.3411 104.836 68.2344 105.523 67.4531C106.216 66.6719 107.201 66.2812 108.477 66.2812C108.888 66.2812 109.299 66.3255 109.711 66.4141C110.122 66.5026 110.445 66.6068 110.68 66.7266L110.281 67.8281C109.995 67.7135 109.682 67.6198 109.344 67.5469C109.005 67.4688 108.706 67.4297 108.445 67.4297C106.706 67.4297 105.836 68.5391 105.836 70.7578C105.836 71.8099 106.047 72.6172 106.469 73.1797C106.896 73.7422 107.526 74.0234 108.359 74.0234C109.073 74.0234 109.805 73.8698 110.555 73.5625V74.7109C109.982 75.0078 109.26 75.1562 108.391 75.1562ZM116.211 75.1562C114.945 75.1562 113.945 74.7708 113.211 74C112.482 73.2292 112.117 72.1589 112.117 70.7891C112.117 69.4089 112.456 68.3125 113.133 67.5C113.815 66.6875 114.729 66.2812 115.875 66.2812C116.948 66.2812 117.797 66.6354 118.422 67.3438C119.047 68.0469 119.359 68.9766 119.359 70.1328V70.9531H113.461C113.487 71.9583 113.74 72.7214 114.219 73.2422C114.703 73.763 115.383 74.0234 116.258 74.0234C117.18 74.0234 118.091 73.8307 118.992 73.4453V74.6016C118.534 74.7995 118.099 74.9401 117.688 75.0234C117.281 75.112 116.789 75.1562 116.211 75.1562ZM115.859 67.3672C115.172 67.3672 114.622 67.5911 114.211 68.0391C113.805 68.487 113.565 69.1068 113.492 69.8984H117.969C117.969 69.0807 117.786 68.4557 117.422 68.0234C117.057 67.5859 116.536 67.3672 115.859 67.3672ZM113.242 65.125C113.904 64.4167 114.367 63.8958 114.633 63.5625C114.898 63.2292 115.091 62.9557 115.211 62.7422H116.508C116.622 62.9609 116.82 63.2448 117.102 63.5938C117.388 63.9375 117.857 64.4479 118.508 65.125V65.3047H117.578C117.12 65.0182 116.544 64.5339 115.852 63.8516C115.143 64.5495 114.573 65.0339 114.141 65.3047H113.242V65.125ZM122.75 71.8516H121.93L121.531 63.5781H123.148L122.75 71.8516ZM121.391 74.1719C121.391 73.4635 121.703 73.1094 122.328 73.1094C122.63 73.1094 122.862 73.2005 123.023 73.3828C123.19 73.5651 123.273 73.8281 123.273 74.1719C123.273 74.5052 123.19 74.7656 123.023 74.9531C122.857 75.1354 122.625 75.2266 122.328 75.2266C122.057 75.2266 121.833 75.1458 121.656 74.9844C121.479 74.8177 121.391 74.5469 121.391 74.1719Z" fill="#CF0072"/>
<g clip-path="url(#clip0)">
<path d="M131.513 34.0976C131.513 35.771 131.013 37.4069 130.077 38.7983C129.141 40.1898 127.81 41.2743 126.254 41.9147C124.697 42.5551 122.984 42.7226 121.332 42.3961C119.679 42.0697 118.162 41.2638 116.97 40.0805C115.779 38.8972 114.968 37.3896 114.639 35.7483C114.31 34.107 114.479 32.4057 115.124 30.8596C115.768 29.3136 116.86 27.9921 118.261 27.0624C119.662 26.1327 121.309 25.6364 122.994 25.6364C124.113 25.6359 125.221 25.8545 126.254 26.2795C127.288 26.7046 128.227 27.3278 129.019 28.1136C129.81 28.8994 130.437 29.8323 130.865 30.8591C131.293 31.8858 131.513 32.9863 131.513 34.0976ZM139.004 34.0976C139.004 30.9524 138.065 27.8779 136.306 25.2628C134.547 22.6476 132.046 20.6094 129.121 19.4058C126.195 18.2022 122.976 17.8873 119.87 18.5009C116.765 19.1145 113.912 20.629 111.673 22.853C109.434 25.077 107.909 27.9105 107.291 30.9952C106.673 34.0799 106.99 37.2773 108.202 40.1831C109.414 43.0889 111.466 45.5725 114.099 47.3198C116.732 49.0672 119.827 49.9998 122.994 49.9998C125.096 49.9998 127.178 49.5885 129.121 48.7893C131.063 47.9902 132.828 46.8188 134.315 45.3422C135.802 43.8655 136.981 42.1125 137.786 40.1831C138.59 38.2538 139.004 36.1859 139.004 34.0976Z" fill="#CF0072"/>
<path d="M96.2924 19.2598H94.9736V48.9361H102.731V25.868C102.731 20.3642 98.3279 19.2634 96.2814 19.2634" fill="#CF0072"/>
<path d="M58.3452 13.943L57.7283 14.6768C52.5824 10.083 45.6484 8.24841 40.6355 3.43076C40.2069 3.01982 40.4064 2.51347 41.0049 2.52081C47.1298 2.57218 52.4568 8.71072 58.2344 10.5013C53.5133 7.70537 47.4623 2.88039 42.6672 1.02378C42.536 0.975122 42.4295 0.876658 42.3713 0.750046C42.3131 0.623435 42.3079 0.479048 42.3569 0.348648C42.4059 0.218249 42.5051 0.112519 42.6325 0.0547186C42.76 -0.00308231 42.9054 -0.00821962 43.0367 0.0404368C45.6706 1.06047 48.7811 3.07852 51.9433 5.1773C55.1055 7.27607 58.3674 9.53996 61.3486 11.0296C61.947 11.3305 61.7845 12.0277 61.1159 12.0277C54.1745 12.0277 49.1246 4.96815 42.549 3.73164C47.429 7.76774 53.6684 9.65003 58.4117 13.8879C58.4743 13.9282 58.5275 13.9812 58.5678 14.0435C58.6081 14.1057 58.6346 14.1758 58.6455 14.249C58.6564 14.3223 58.6514 14.397 58.631 14.4682C58.6105 14.5393 58.5751 14.6054 58.5269 14.6619C58.4788 14.7184 58.419 14.764 58.3517 14.7958C58.2844 14.8276 58.2111 14.8448 58.1366 14.8462C58.062 14.8476 57.9881 14.8332 57.9196 14.804C57.8511 14.7748 57.7897 14.7314 57.7394 14.6768C53.0737 10.7251 47.4955 8.17869 42.3495 4.9865C42.2842 4.95627 42.2258 4.91308 42.1779 4.8596C42.13 4.80612 42.0937 4.74347 42.0711 4.6755C42.0485 4.60754 42.0401 4.5357 42.0465 4.46441C42.0529 4.39312 42.0739 4.32387 42.1082 4.26094C42.1425 4.19801 42.1895 4.14272 42.2461 4.09847C42.3027 4.05423 42.3679 4.02196 42.4376 4.00366C42.5072 3.98535 42.5799 3.9814 42.6512 3.99204C42.7225 4.00268 42.7908 4.02769 42.8519 4.06553C48.5077 6.65965 56.79 10.083 60.8018 14.974C60.876 15.0385 60.9289 15.1235 60.9537 15.2182C60.9785 15.3129 60.9741 15.4128 60.9411 15.505C60.908 15.5972 60.8478 15.6773 60.7683 15.7351C60.6888 15.7929 60.5937 15.8256 60.4952 15.8289C56.8897 16.4857 52.1132 12.6991 49.0914 11.0076C46.0696 9.31614 42.8409 8.20071 40.2254 5.95883C39.276 5.14428 41.1785 4.82872 41.5775 4.72966C42.9332 4.39943 44.1338 4.23799 45.6004 3.92244C46.1471 3.80869 46.4353 4.2123 46.1508 4.70397C43.9343 8.57863 36.3983 15.3813 32.3458 15.8473C31.7621 15.917 31.5109 15.44 31.8914 14.9814C35.4636 10.7288 39.1578 6.45417 43.624 3.08219C38.6812 4.62325 34.6251 10.516 30.5061 13.6861C29.3683 14.5594 29.7414 12.2185 29.7968 11.8515C29.8045 11.7818 29.8263 11.7142 29.8611 11.6531C29.8959 11.592 29.9428 11.5385 29.999 11.496C30.0552 11.4534 30.1196 11.4227 30.1882 11.4057C30.2567 11.3886 30.3281 11.3856 30.3978 11.3968C30.4676 11.4081 30.5344 11.4333 30.594 11.4709C30.6537 11.5086 30.705 11.5579 30.7448 11.6159C30.7847 11.6739 30.8122 11.7393 30.8258 11.8082C30.8394 11.8771 30.8387 11.948 30.8238 12.0167V12.1011C35.0942 8.38417 39.7673 1.83467 45.7703 1.66222C46.4168 1.66222 46.6089 2.26763 46.0696 2.62721C44.665 3.57129 43.3214 4.60191 42.0466 5.713L41.825 5.9038C38.9325 8.4392 36.3576 11.3269 33.7754 14.3723C37.2812 12.9046 42.272 8.41352 44.5771 5.19931C43.7127 5.36076 42.9074 5.50019 42.0466 5.70199L41.6772 5.79005L41.8176 5.89279C44.2225 7.62098 47.0116 8.66302 49.5753 10.0867C52.2573 11.5727 56.1657 14.5998 59.2577 14.8273C58.9659 14.5227 58.6592 14.2255 58.3342 13.932" fill="#CF0072"/>
<path d="M73.0188 42.4011H74.7624C79.3949 42.4011 83.3587 39.884 83.3587 34.0977C83.3587 28.7847 79.8308 25.7943 74.84 25.7943H73.0188V42.4011ZM65.2611 19.2632H76.277C84.5963 19.2632 91.4526 25.7576 91.4526 34.0977C91.4526 42.4378 84.5593 48.9322 76.277 48.9322H65.25L65.2611 19.2632Z" fill="#CF0072"/>
<path d="M20.8387 48.9322C26.4132 48.9322 27.8576 43.4908 27.9537 42.4011H13.0736L27.1373 19.2632H2.41598V25.7943H14.1412L0 48.9322H20.8387Z" fill="#CF0072"/>
<path d="M54.2224 34.0976C54.2223 35.772 53.7222 37.4087 52.7851 38.8006C51.8481 40.1925 50.5163 41.277 48.9585 41.9168C47.4006 42.5565 45.6866 42.7228 44.0335 42.3945C42.3805 42.0662 40.8626 41.2582 39.6721 40.0727C38.4817 38.8872 37.6721 37.3775 37.3459 35.7347C37.0197 34.092 37.1916 32.39 37.8397 30.8444C38.4879 29.2987 39.5832 27.9788 40.987 27.0517C42.3908 26.1246 44.04 25.6321 45.7258 25.6364C47.9816 25.6413 50.1432 26.535 51.7362 28.1214C53.3292 29.7077 54.2233 31.8571 54.2224 34.0976ZM61.7178 34.0976C61.7185 30.9514 60.7798 27.8756 59.0205 25.2594C57.2611 22.6431 54.76 20.6038 51.8337 19.3995C48.9073 18.1951 45.6871 17.8798 42.5803 18.4934C39.4735 19.1071 36.6197 20.622 34.3799 22.8467C32.1401 25.0714 30.6148 27.9059 29.997 30.9917C29.3792 34.0775 29.6966 37.276 30.9092 40.1826C32.1217 43.0891 34.1749 45.5733 36.8089 47.3207C39.443 49.0682 42.5397 50.0006 45.7073 49.9999C49.9533 49.9989 54.025 48.3232 57.0274 45.3411C60.0297 42.3591 61.7168 38.3148 61.7178 34.0976Z" fill="#CF0072"/>
</g>
<defs>
<clipPath id="clip0">
<rect width="139" height="50" fill="white"/>
</clipPath>
</defs>
</svg>
