<svg width="41" height="15" viewBox="0 0 41 15" fill="none" xmlns="http://www.w3.org/2000/svg">
<path d="M38.2781 10.4074C38.2781 11.7569 37.191 12.8459 35.844 12.8459C34.4969 12.8459 33.4098 11.7569 33.4098 10.4074C33.4098 9.05792 34.4969 7.96888 35.844 7.96888C37.191 7.96888 38.2781 9.05792 38.2781 10.4074ZM40.4287 10.4074C40.4287 7.87417 38.3727 5.81445 35.844 5.81445C33.3153 5.81445 31.2593 7.87417 31.2593 10.4074C31.2593 12.9406 33.3153 15.0003 35.844 15.0003C38.3727 14.9767 40.4287 12.9406 40.4287 10.4074Z" fill="#CF0072"/>
<path d="M28.2121 6.12207H27.834V14.6924H30.0554V8.03974C30.0554 6.42984 28.8029 6.12207 28.2121 6.12207Z" fill="#CF0072"/>
<path d="M17.3656 4.58292L17.2002 4.796C15.735 3.4702 13.7499 2.94935 12.3083 1.55252C12.1901 1.43415 12.2374 1.2921 12.4028 1.2921C14.1516 1.31577 15.6877 3.06772 17.342 3.58857C15.9949 2.78362 14.2698 1.3868 12.8991 0.842274C12.71 0.771249 12.8282 0.487154 12.9936 0.558179C13.7499 0.842278 14.6479 1.43415 15.5459 2.0497C16.444 2.66525 17.3893 3.30447 18.24 3.73062C18.4055 3.82532 18.3582 4.01472 18.1691 4.01472C16.184 4.01472 14.7424 1.97868 12.8518 1.62355C14.2461 2.8073 16.0186 3.35183 17.3656 4.58292C17.5311 4.7013 17.342 4.93805 17.2002 4.796C15.8768 3.6596 14.2698 2.92567 12.8046 2.00235C12.6391 1.88397 12.7573 1.64723 12.9464 1.74193C14.5534 2.49953 16.9402 3.4702 18.0746 4.8907C18.1691 5.00907 18.1219 5.10377 17.9801 5.12745C16.9403 5.31685 15.5932 4.2278 14.7188 3.73062C13.868 3.25712 12.9227 2.92567 12.1901 2.26277C11.9065 2.02602 12.4737 1.93132 12.5682 1.90765C12.9464 1.81295 13.3008 1.7656 13.7262 1.6709C13.8917 1.64722 13.9626 1.7656 13.8917 1.90765C13.2536 3.02037 11.103 4.9854 9.94502 5.12745C9.77959 5.15112 9.70869 5.00907 9.82686 4.86702C10.8431 3.63592 11.9065 2.40482 13.1827 1.43415C11.7647 1.88397 10.6067 3.58857 9.4251 4.48822C9.09425 4.74864 9.21241 4.06207 9.21241 3.9437C9.23604 3.7543 9.54327 3.80165 9.496 3.99105V4.01472C10.7249 2.94935 12.0483 1.05535 13.7735 1.008C13.9626 1.008 14.0098 1.17372 13.868 1.2921C13.4663 1.5762 13.0881 1.8603 12.71 2.19175L12.6391 2.2391C11.812 2.97302 11.0794 3.80165 10.3468 4.67762C11.3393 4.25147 12.7809 2.94935 13.4426 2.02602C13.2063 2.07337 12.97 2.12072 12.71 2.16807L12.6155 2.19175L12.6628 2.21543C13.3481 2.7126 14.1516 3.02037 14.8842 3.42285C15.6405 3.84899 16.7748 4.72497 17.6492 4.796C17.5311 4.74865 17.4602 4.67762 17.3656 4.58292Z" fill="#CF0072"/>
<path d="M21.5476 12.7984H22.0439C23.3673 12.7984 24.5017 12.0645 24.5017 10.4072C24.5017 8.86836 23.4855 8.01607 22.0675 8.01607H21.5476V12.7984ZM19.3262 6.12207H22.4693C24.8562 6.12207 26.8177 7.99239 26.8177 10.4072C26.8177 12.8221 24.8562 14.6924 22.4693 14.6924H19.3262V6.12207Z" fill="#CF0072"/>
<path d="M6.63509 14.668C8.21847 14.668 8.64385 13.1054 8.66749 12.774H4.41363L8.43116 6.09766H1.36503V7.99165H4.72085L0.679688 14.668H6.63509Z" fill="#CF0072"/>
<path d="M16.1839 10.4074C16.1839 11.7569 15.0968 12.8459 13.7497 12.8459C12.4027 12.8459 11.3156 11.7569 11.3156 10.4074C11.3156 9.05792 12.4027 7.96888 13.7497 7.96888C15.0968 7.96888 16.1839 9.05792 16.1839 10.4074ZM18.3345 10.4074C18.3345 7.87417 16.2784 5.81445 13.7497 5.81445C11.2211 5.81445 9.16504 7.87417 9.16504 10.4074C9.16504 12.9406 11.2211 15.0003 13.7497 15.0003C16.2784 14.9767 18.3345 12.9406 18.3345 10.4074Z" fill="#CF0072"/>
</svg>
